<svg xmlns="http://www.w3.org/2000/svg" viewBox="0 0 175.76 79.6"><defs><style>.cls-1{fill:#f58220;}.cls-1,.cls-2,.cls-3,.cls-4{fill-rule:evenodd;}.cls-2{fill:#231f20;}.cls-3{fill:#003a78;}.cls-4{fill:#fff;}</style></defs><title>NUS Logo</title><g id="Layer_2" data-name="Layer 2"><g id="Layer_1-2" data-name="Layer 1"><path class="cls-1" d="M61.85,38.41c0,.4.39,10.6-8,23.57A43.5,43.5,0,0,1,31.12,79.6h-.4A43.91,43.91,0,0,1,8.08,62C.4,50.07,0,40.53,0,38.81V.53H61.85V38.41Z"/><polygon class="cls-2" points="70.72 46.62 72.31 46.62 76.02 53.24 76.02 53.24 76.02 46.62 77.21 46.62 77.21 54.83 75.62 54.83 71.91 48.08 71.91 48.08 71.91 54.83 70.72 54.83 70.72 46.62 70.72 46.62"/><path class="cls-2" d="M82.77,52.58a1.64,1.64,0,0,1-1.72,1.59,1.16,1.16,0,0,1-1.19-1.06c0-1.06,1.59-1.06,2.12-1.06h.79v.53ZM79.46,50.2a2.89,2.89,0,0,1,1.72-.53c1.19,0,1.59.53,1.59,1.45H81.58c-1.19,0-2.78.53-2.78,2S79.59,55,80.92,55A2.06,2.06,0,0,0,82.77,54h0v.79h1.06V51.26c0-1.72-.66-2.52-2.38-2.52a4.45,4.45,0,0,0-2,.53v.93Z"/><path class="cls-2" d="M88.86,49.8H87.27v3.31a1,1,0,0,0,.93,1.06,1.16,1.16,0,0,0,.8-.26v.92a2.18,2.18,0,0,1-.93.14c-1.19,0-1.86-.53-1.86-1.73V49.8H84.89v-.93h1.32V47.42l1.06-.27v1.72h1.59v.93Z"/><path class="cls-2" d="M90.45,54.83h1.06v-6H90.45v6Zm-.13-7.28h1.32V46.22H90.32v1.33Z"/><path class="cls-2" d="M94.29,51.92a1.94,1.94,0,1,1,3.84,0,1.94,1.94,0,1,1-3.84,0Zm-1.19,0a3,3,0,0,0,3.18,3,3,3,0,0,0,3-3,3.12,3.12,0,1,0-6.23,0Z"/><path class="cls-3" d="M60.39,26V1.86H1.59V26.09L60.39,26Z"/><path class="cls-2" d="M100.78,48.87h1.06v.93h0a2.34,2.34,0,0,1,2-1.06c1.59,0,2.25.93,2.25,2.52v3.57H105v-3c0-1.46-.4-2.12-1.32-2.12-1.33,0-1.86.92-1.86,2.38v2.78h-1.06v-6Z"/><path class="cls-2" d="M111.51,52.58a1.52,1.52,0,0,1-1.59,1.59,1.16,1.16,0,0,1-1.19-1.06c0-1.06,1.45-1.06,2.12-1.06h.66v.53Zm-3.18-2.38a2.43,2.43,0,0,1,1.72-.53,1.27,1.27,0,0,1,1.46,1.45h-1.19c-1.06,0-2.78.53-2.78,2s.92,1.86,2.25,1.86a2.06,2.06,0,0,0,1.85-.93h0v.79h1.06V51.26a2.19,2.19,0,0,0-2.52-2.52,5.62,5.62,0,0,0-2,.53l.13.93Z"/><polygon class="cls-2" points="114.69 46.09 115.75 46.09 115.75 54.83 114.69 54.83 114.69 46.09 114.69 46.09"/><path class="cls-2" d="M127.27,51.52c0,2.25-1.19,3.45-3.18,3.45s-3.18-1.2-3.18-3.45v-4.9h1.19v4.64c0,1.59.4,2.78,2,2.78s2-1.19,2-2.78V46.62h1.19v4.9Z"/><path class="cls-2" d="M129.26,48.87h1.05v.93h0a2.36,2.36,0,0,1,2-1.06c1.59,0,2.25.93,2.25,2.52v3.57h-1.06v-3c0-1.46-.39-2.12-1.32-2.12-1.19,0-1.86.92-1.86,2.38v2.78h-1.05v-6Z"/><path class="cls-2" d="M136.54,48.87h1.19v6h-1.19v-6Zm0-2.65h1.19v1.33h-1.19V46.22Z"/><polygon class="cls-2" points="142.37 54.83 141.04 54.83 138.92 48.87 140.12 48.87 141.7 53.77 141.84 53.77 143.43 48.87 144.62 48.87 142.37 54.83 142.37 54.83"/><path class="cls-2" d="M146.47,51.26a1.52,1.52,0,0,1,1.59-1.59,1.43,1.43,0,0,1,1.46,1.59Zm3.71,2.25a3,3,0,0,1-1.72.66,2,2,0,0,1-2-2h4.24c0-2-.66-3.44-2.65-3.44-1.72,0-2.78,1.19-2.78,3s.93,3.18,3.05,3.18a3,3,0,0,0,1.85-.4V53.51Z"/><path class="cls-2" d="M152.17,48.87h1.06v.93h0a1.71,1.71,0,0,1,1.58-1.06h.8V49.8a1.47,1.47,0,0,0-.66-.13c-1.06,0-1.59.92-1.59,2.51v2.65h-1.19v-6Z"/><path class="cls-2" d="M156.27,53.64a2.45,2.45,0,0,0,1.46.53.94.94,0,0,0,1.06-.93c0-1.06-2.52-.92-2.52-2.65,0-1.32.93-1.85,2.12-1.85a3.68,3.68,0,0,1,1.32.27l-.13.92a2.51,2.51,0,0,0-1.06-.26c-.66,0-1.06.13-1.06.66,0,1.19,2.52.93,2.52,2.78,0,1.33-.93,1.86-2.12,1.86a3.31,3.31,0,0,1-1.59-.27V53.64Z"/><path class="cls-2" d="M161.44,48.87h1.19v6h-1.19v-6Zm0-2.65h1.19v1.33h-1.19V46.22Z"/><path class="cls-2" d="M167.79,49.8H166.2v3.31a1,1,0,0,0,.93,1.06,1.16,1.16,0,0,0,.8-.26v.92A1.88,1.88,0,0,1,167,55c-1.19,0-1.86-.53-1.86-1.73V49.8h-1.32v-.93h1.32V47.42l1.06-.27v1.72h1.59v.93Z"/><path class="cls-2" d="M168.72,56.55h.53c1.06,0,1.32-1.32,1.32-1.45a5.89,5.89,0,0,1-.13-.66l-2.12-5.57h1.19l1.73,5h0l1.59-5H174L171.77,55c-.4,1.19-.8,2.51-2.26,2.51-.39,0-.66,0-.79-.13v-.8Z"/><path class="cls-2" d="M71.38,65.82a2,2,0,0,1,1.86-2.25,2.3,2.3,0,1,1-1.86,2.25Zm-1.19,0a3.1,3.1,0,0,0,3,3.18,3,3,0,0,0,3-3.18,3,3,0,0,0-3-3.17,3,3,0,0,0-3,3.17Z"/><path class="cls-2" d="M78.53,63.71H77.08v-.93h1.45v-.53c0-1.46.4-2.38,2-2.38h.79v.92c-.13,0-.39-.13-.53-.13-1.06,0-1.06.66-1.06,1.46v.66h1.59v.93H79.72v5H78.53v-5Z"/><path class="cls-2" d="M89.26,61.85a3.6,3.6,0,0,0-1.59-.4c-.66,0-1.46.27-1.46,1.06,0,1.59,3.58,1.33,3.58,4,0,1.72-1.32,2.51-3.05,2.51A8.2,8.2,0,0,1,85,68.61l.13-1.06a6.76,6.76,0,0,0,1.73.39,1.46,1.46,0,0,0,1.59-1.32c0-1.85-3.45-1.32-3.45-4,0-1.46,1.06-2.25,2.65-2.25a4.13,4.13,0,0,1,1.72.39l-.13,1.06Z"/><path class="cls-2" d="M91.38,62.78h1.19v6H91.38v-6Zm0-2.52h1.19v1.19H91.38V60.26Z"/><path class="cls-2" d="M94.56,62.78h1.06v.93h0a2.3,2.3,0,0,1,2-1.06c1.59,0,2.25.92,2.25,2.65v3.44h-1v-3c0-1.45-.4-2.12-1.33-2.12-1.19,0-1.85.93-1.85,2.39v2.78H94.56v-6Z"/><path class="cls-2" d="M104.23,67.94a2,2,0,0,1-1.73-2.12c0-1,.53-2.25,1.73-2.25S106,64.63,106,65.82s-.67,2.12-1.72,2.12ZM107,62.78h-.93v.93H106a1.73,1.73,0,0,0-1.86-1.06,3,3,0,0,0-2.78,3.17A2.65,2.65,0,0,0,104,68.74a2.58,2.58,0,0,0,2-.93h0v.66c0,1.33-.67,2-1.86,2a4.19,4.19,0,0,1-2.12-.53L101.84,71a4.53,4.53,0,0,0,2.12.4c2.12,0,3.05-1.06,3.05-2.78V62.78Z"/><path class="cls-2" d="M112.57,66.49a1.57,1.57,0,0,1-1.72,1.59,1.17,1.17,0,0,1-1.2-1.06c0-1.06,1.59-1.06,2.12-1.06h.8v.53Zm-3.31-2.39a4.39,4.39,0,0,1,1.72-.53c1.19,0,1.59.53,1.59,1.59a4.17,4.17,0,0,0-1.19-.13c-1.2,0-2.78.53-2.78,2a1.85,1.85,0,0,0,2.11,2,2.47,2.47,0,0,0,1.86-.92h.13v.66h.93V65.16c0-1.72-.66-2.51-2.39-2.51a4.31,4.31,0,0,0-2,.53v.92Z"/><path class="cls-2" d="M120,65.82c.14.93-.39,2.26-1.58,2.26s-1.86-1.33-1.86-2.26a2,2,0,0,1,1.86-2.25c1.19,0,1.72,1.06,1.58,2.25Zm-4.5,5.43h1.06V67.94h.13a2.14,2.14,0,0,0,2,1.06c1.85,0,2.52-1.72,2.52-3.31s-.8-3-2.52-3a2.55,2.55,0,0,0-2.12,1.06h0v-.93h-1.06v8.47Z"/><path class="cls-2" d="M123.43,65.82a2.1,2.1,0,0,1,2-2.25,2,2,0,0,1,1.86,2.25,1.95,1.95,0,1,1-3.84,0Zm-1.19,0a3.11,3.11,0,1,0,6.22,0,3.11,3.11,0,1,0-6.22,0Z"/><path class="cls-2" d="M129.92,62.78H131v.93h0a1.7,1.7,0,0,1,1.59-1.06,1.22,1.22,0,0,1,.66.13v.93c-.13,0-.4-.14-.53-.14-1.06,0-1.72.93-1.72,2.52v2.65h-1.06v-6Z"/><path class="cls-2" d="M135.21,65.16a1.74,1.74,0,0,1,1.73-1.59,1.5,1.5,0,0,1,1.45,1.59Zm3.84,2.25a3,3,0,0,1-1.85.67,2,2,0,0,1-2-2h4.37c0-2-.66-3.44-2.64-3.44a2.78,2.78,0,0,0-2.79,3c0,2,.93,3.31,3,3.31a4.84,4.84,0,0,0,1.85-.39v-1.2Z"/><path class="cls-2" d="M146.87,30.2c2.25,2.12,6.75,4,12.18,4.11,4.77.13,8.61-1.33,8.88-5.3.53-8.48-21.46-5.17-20.53-19.6C147.8,2.26,155-.13,162.63,0a25.78,25.78,0,0,1,10.73,2.25v5a20.88,20.88,0,0,0-9.94-3.18c-4.9,0-8.87.8-8.87,4.37-.13,7.55,22,5.7,21.19,20-.53,8.08-8.34,10.59-16.56,10.46-4.76-.13-9.4-1.06-12.18-2.52l-.13-6.22Z"/><path class="cls-2" d="M126.21,38.94c-10.2,0-16-4.5-16-13.9v-24h7.55V25c0,5.82,2.92,9.27,8.48,9.27s8.34-3.45,8.34-9.27v-24h7.68V25c0,9.4-5.82,13.9-16,13.9Z"/><path class="cls-2" d="M97.74,1.06V28L80.25,3.05a4.58,4.58,0,0,0-3.7-2H70.72V37.75h5.16V10.86l17.35,24.9a4.84,4.84,0,0,0,3.84,2h5.7V1.06Z"/><path class="cls-4" d="M52.58,61.72C45.16,73.51,32.71,77.74,31,78.41c-1.72-.67-14.17-4.9-21.59-16.69S1.59,40.4,1.59,39.07V25.43h58.8V39.07c0,1.33-.27,10.73-7.81,22.65Z"/><path class="cls-3" d="M57.74,36.42a2.75,2.75,0,0,0-1.59-2c-2.12-1.06-4.77-.4-7,.53A42.32,42.32,0,0,1,44.76,36c-1.59.26-6.62.79-8.21-.53-.26-.13-.4-.53-.53-.8a3.82,3.82,0,0,1,.4-1.45,4.62,4.62,0,0,1,2.91-.67l4,.14a4,4,0,0,0,2.51,1.06,10.64,10.64,0,0,0,5.3-.27,3.35,3.35,0,0,1-.93-.4,1,1,0,0,1-.26-.66,3.16,3.16,0,0,0,1.32.27c1.06,0,1.59-.53,2.52-.8a8.84,8.84,0,0,1,2,0,3.78,3.78,0,0,0-2-1.19,10.31,10.31,0,0,0-2.12,0,1.62,1.62,0,0,0,1.06-1.06,8.33,8.33,0,0,1-2.25.4c-1.19-.13-1.06-.53-3.31-.53A5.1,5.1,0,0,0,43.44,31c-1.86-.13-3.18-.26-4.11-.26-2.25,0-3.57.4-4.37,1.32A3.27,3.27,0,0,0,34,34.84a3.44,3.44,0,0,0,1.19,2.25c2.12,1.72,7.94,1.19,9.93.92A28.82,28.82,0,0,0,49.53,37h0c1.06-.39,4.11-1.45,5.43-.79a1.35,1.35,0,0,1,.53.93.48.48,0,0,1,.13.39,1.93,1.93,0,0,1-.26.8c-1.19,1.32-5.7,1.59-7.55,1.72-.27,0-1.59-.26-3.31-.4a22.18,22.18,0,0,0-3,.27,32.56,32.56,0,0,1-7-.13,15.16,15.16,0,0,1-4-.8,1.86,1.86,0,0,0-.66-1.19,2.17,2.17,0,0,0,2.12-1.06s-1.46-.4-1.46-1.19c0-.13.93,0,1.32-1.33-.92-.53-.66-.66-1.06-1.32a1.81,1.81,0,0,0-1.72-.8c.27-.13.27,0,.53-.26.53-.13.8-.8,1.19-.66-.79-1.33-3-1.59-4-1.19.13-.4.53-.67.53-1.06-1.19.26-2.38-.4-3.71-.14a2.49,2.49,0,0,0-2,1.59h0a2.52,2.52,0,0,0-2-1.59c-1.19-.26-2.52.4-3.71.14,0,.39.4.66.66,1.06-1.06-.4-3.31-.14-4.1,1.19.4-.14.66.53,1.19.66.27.26.4.26.53.26a2,2,0,0,0-1.72.8c-.4.66-.13.79-1.06,1.32.4,1.33,1.32,1.2,1.32,1.33,0,.79-1.45,1.19-1.45,1.19a2.15,2.15,0,0,0,2.12,1.06,2,2,0,0,0-.67,2,20.49,20.49,0,0,1-2.38-2.26,18.25,18.25,0,0,1-.79-2.25l-.27-.66v-.4c-.4-1.19-.66-2.12-1.19-2.25H7.42c-.27-.26-.53-.66-.8-.66a1.26,1.26,0,0,0-.93-.13,2.19,2.19,0,0,1,.67.79c.13,0,.13.13.13.27a.5.5,0,0,0-.27.13H6.09c0,.13-.13.13-.13.26H5.83a1.63,1.63,0,0,0-.93,0s.4.27.66.4a1.87,1.87,0,0,0-.39,1.19v.14c-.67,0-.8.26-.8.26a2,2,0,0,1,.8.4.13.13,0,0,0,.13.13H5.17a1.15,1.15,0,0,0-.14.66,2.17,2.17,0,0,0,.66,1.46s1.06.79,1.2.93a12.85,12.85,0,0,0,1.19,2.12c.13.13.66,1.19,1.46,2.38a1,1,0,0,0,.26.53c.13.66.27,1.59.4,2.25a17.33,17.33,0,0,1,0,2.78,2.1,2.1,0,0,0,1.19-.66,8.3,8.3,0,0,1,.26,2c-.13.66-.26,1.72-.26,1.72a9.94,9.94,0,0,0,1.46-.93c.26-.26.53-.79.79-1.06.66.4,2.52-.26,3.44-.66a5.08,5.08,0,0,0,.8,1.32c.13-.53.79-.92,1.06-1.32h.26A4.39,4.39,0,0,0,19.6,51a14.08,14.08,0,0,0,1.59,2.12c-.27,1.06-.66,3-1.06,4.64a13.84,13.84,0,0,1-1.19,3c-.66,0-1.86.13-2.25.13a2.58,2.58,0,0,0-2.12.53s0,.14-.13.14a1.43,1.43,0,0,0-.93.39,1.24,1.24,0,0,0-.4.8,2,2,0,0,1,.93-.4h.13v.13a.49.49,0,0,0,.13.4l-.13.13a1.59,1.59,0,0,0-.4.8,2.63,2.63,0,0,1,.8-.27,1.77,1.77,0,0,0,.53.53c-.14,0-.14,0-.14.14a2.07,2.07,0,0,0-.26.79,4.49,4.49,0,0,1,.79-.4c0,.14.14.27.27.4.66.4,2,.13,3.84-.4l1.06-.26a2,2,0,0,0,1.59-.93,1.43,1.43,0,0,0,.26-.79l.14-.27a6.53,6.53,0,0,1,.92-2s.53-.8,1.2-1.86a13.39,13.39,0,0,1,1.72-1.32c.79-.53,2.38-1.33,2.38-1.33a1.84,1.84,0,0,0-1.06-.79A5.66,5.66,0,0,1,29.27,54,6.3,6.3,0,0,1,31,53.51a4.37,4.37,0,0,0-.93-1.06c.27,0,.4-.13.66-.4a3.7,3.7,0,0,1,3.18-.53,1.45,1.45,0,0,0-.66-1.32c.53-.13.93-.27,1.46-.4.26.53.53,1.06.66,1.32.79.93,1.72,2.26,2.52,3.05a.13.13,0,0,1,.13.13c0,.27-.53,1.19-.66,1.72l-.27.53s-.79,1.86-1.06,2.52a14.55,14.55,0,0,1-2.38,0,2.28,2.28,0,0,0-2,.66.13.13,0,0,0-.13.14,1,1,0,0,0-.93.39,1.59,1.59,0,0,0-.4.8,2.58,2.58,0,0,1,.93-.27h.13a.63.63,0,0,0,.14.4c-.14,0-.14.13-.27.26a2.09,2.09,0,0,0-.26.8,2,2,0,0,1,.92-.4h0c.14.13.14.27.27.4a.13.13,0,0,1-.13.13,2,2,0,0,0-.27.8,2.14,2.14,0,0,1,.8-.4l.39.4c.53.39,1.73.13,3.31-.27l1.06-.4a1.92,1.92,0,0,0,1.59-.92l.4-.67c.13-.26.27-.66.4-.92a6.82,6.82,0,0,0,.53-.93l.66-.66a17.18,17.18,0,0,1,1.85-1.06,1,1,0,0,0-.79-.53,4.13,4.13,0,0,1,1.06-.93,13.92,13.92,0,0,1,1.32-.53,8.92,8.92,0,0,0-1.06-.66,5.45,5.45,0,0,0-.66-.13,1.73,1.73,0,0,0-.4-.93c-.39-.66.27-2.25.67-3,.26.27.66.93,1.45,1.73,0,0,2.25,2.38,2.78,3-.13.4-.53,1.59-.92,2.92a26.16,26.16,0,0,1-1.2,2.64H42.64a2.76,2.76,0,0,0-2,.53l-.27.27-.79.4c-.4.53-.27.79-.27.79a1.19,1.19,0,0,1,.8-.26h.13a.48.48,0,0,0,.13.39c-.13,0-.13.14-.26.27a1.55,1.55,0,0,0-.27.79,2.16,2.16,0,0,1,.8-.39h.13a1.91,1.91,0,0,1,.4.53h0a1.58,1.58,0,0,0-.4.79,4.49,4.49,0,0,1,.79-.4.29.29,0,0,0,.27.27c.53.53,1.72.26,3.31-.27l1.06-.26a2.18,2.18,0,0,0,1.59-.93c.13-.26.79-2,1.06-2.38a19.33,19.33,0,0,1,1.06-2.52,1.83,1.83,0,0,0,.53-.4l2-1.19a1.34,1.34,0,0,0-.79-.66l1.06-.8A6.63,6.63,0,0,1,54,55s-.66-.4-1.06-.67-.66-.13-.92-.26c-.14-.4-.27-.4-.53-.66a2.9,2.9,0,0,1-1.2-.93c-.66-.8-.79-2.25-.79-3.84V46.09A11.5,11.5,0,0,0,49,42.38c2.25-.13,6.49-.66,8.08-2.78a3,3,0,0,0,.79-2.12,3.38,3.38,0,0,0-.13-1.06Z"/><path class="cls-1" d="M26.09,34.7c.26-.26,1.19-.92.66-1.72s-1.59-.53-1.85-.4a22,22,0,0,0-2.52-1.19l-.93,1.19s-1.06-1.19-.92-1.19A14.63,14.63,0,0,0,18,32.58c-.4-.13-1.46-.53-2,.4s.4,1.46.8,1.72h0L16,36.16l2.26,2.78v1.72l.92.66a11.75,11.75,0,0,1,.4,1.46,6.47,6.47,0,0,0,1.72.4h.13a5.24,5.24,0,0,0,1.73-.4,10.76,10.76,0,0,0,.39-1.46l.93-.66V38.94l2.38-2.78-.79-1.46Zm-7.95.14h2.12L20.13,36l-2-1.19ZM22.91,36c0,.13.27,2.91.27,2.91l-1.46.8v1a.9.9,0,0,0,.53.27,1.71,1.71,0,0,0,1.06.13h.13l-.13.4h0a2.8,2.8,0,0,1-1.06,0,1.76,1.76,0,0,1-.66-.4h-.27c-.13,0-.26.27-.66.4a2.51,2.51,0,0,1-1.06,0h-.13v-.4h.13a1.33,1.33,0,0,0,.93-.13c.26,0,.53-.27.66-.27v-1a16.86,16.86,0,0,1-1.59-1.06h2.78V34.84H24.9S23,36,22.91,36Z"/><path class="cls-1" d="M41.58,55.23c.27-.26.4-.4.4-.66a5.93,5.93,0,0,0-.26-.66,1.11,1.11,0,0,1-.27-.93,5.76,5.76,0,0,1,1.06-2.91c-.13-.14-.26-.27-.4-.4L42,49.54a2.78,2.78,0,0,1-1.06-1.06.13.13,0,0,1-.13-.14,13.65,13.65,0,0,0-3.58.4,1.2,1.2,0,0,1,.53,1.06,5.56,5.56,0,0,0-2.51-.13c.26.4.53.92.66,1.06a27.26,27.26,0,0,0,2.38,3,.69.69,0,0,1,.27.53,6.72,6.72,0,0,1-.8,2l-.13.53L36.42,59.6h-.13c-.14,0-2,.13-2.65.13a1.64,1.64,0,0,0-1.46.27v.53l-.26.26v.13a2.31,2.31,0,0,1,.66-.13s.26.27.13.53a.68.68,0,0,1-.26.53.13.13,0,0,1,.13.13,1.6,1.6,0,0,1,.79-.26,1.63,1.63,0,0,1,.27.66.89.89,0,0,1-.27.4,10.93,10.93,0,0,0,2.65-.4l1.19-.4a1.79,1.79,0,0,0,1.2-.66l.26-.66c.13-.26.27-.66.4-.93a17,17,0,0,0,1.19-2.25,10.32,10.32,0,0,1,1.32-2.25Z"/><path class="cls-1" d="M16.69,44.77a2.82,2.82,0,0,1-2,.92,3.66,3.66,0,0,0-.26-2.11,21.36,21.36,0,0,1-1.2-2.39c-.13-.26-.13-.4-.26-.53A17,17,0,0,1,9.8,37.75,10.47,10.47,0,0,1,9,35.37l-.27-.67v-.39A10.35,10.35,0,0,0,8,32.45H7.68s-.13.4-.66.27h-.4l-.13.13h0a5.36,5.36,0,0,1,.53.66.89.89,0,0,1-.53.53,1,1,0,0,1-.66-.26v-.27a2.16,2.16,0,0,0-.14.93,5.87,5.87,0,0,1,.8.66.58.58,0,0,1-.4.53.41.41,0,0,1-.53,0,1.6,1.6,0,0,0,.53,1.19l1.19.93.14.13a8,8,0,0,0,1.06,2,19.91,19.91,0,0,1,1.45,2.51c1.46,2.39,3.45,5.83,4,6.49a6,6,0,0,0,2.91-.79c-.4-1.33,0-2.12-.13-3.31Z"/><path class="cls-1" d="M57.21,36.56A2.06,2.06,0,0,0,55.89,35c-1.86-1.06-4.37-.27-6.62.53a24,24,0,0,1-4.38,1.06c-2.11.26-7,.92-8.74-.53a2.58,2.58,0,0,1-.66-1.33A3.88,3.88,0,0,1,36,32.85c.53-.53,1.59-.8,3.31-.8h4.11l.26-.26-.26-.27c-1.86-.13-3.18-.26-4.11-.26-2.12,0-3.31.4-4,1.19a3.25,3.25,0,0,0-.79,2.39,3,3,0,0,0,1,1.85c1.86,1.46,7.16,1.06,9.41.66a31.14,31.14,0,0,0,4.24-.93h.13c1.19-.39,4.37-1.45,5.82-.66.4.13.67.53.93,1.06a1.8,1.8,0,0,1-.4,1.72c-1.32,1.73-5.69,1.86-7.94,2h-.13a18.32,18.32,0,0,0-3.18-.26,23.94,23.94,0,0,0-3,.13,33.83,33.83,0,0,1-7.15-.13,25.64,25.64,0,0,1-3.84-.67c-.13.4-.27.93-.53,1.59a21.24,21.24,0,0,1-1.19,2.39,3.57,3.57,0,0,0-.27,2.11c-.92-.13-1.59-.39-1.85-.92-.27,1.59.53,2.51-1.33,5.16-.13-.79-1.19-1.06-1.19-1.85-.26.79.27,1.32-.53,2.91a9.65,9.65,0,0,1-1.85,2.39c-.27,1.06-.66,2.91-1.06,4.5a9.65,9.65,0,0,1-1.32,3.31v.13H19.2a19,19,0,0,1-2.65.13,2.54,2.54,0,0,0-1.45.27.41.41,0,0,1,0,.53c-.14.26-.27.26-.4.4h.13a2.73,2.73,0,0,1,.8-.14,1.44,1.44,0,0,1,0,.8c-.14.13-.14.26-.27.26s.13.14.13.27a1.88,1.88,0,0,1,.93-.27.83.83,0,0,1,.13.8c-.13.13-.13.26-.26.26a9.63,9.63,0,0,0,3.18-.53l1.06-.26c.66-.13,1.06-.27,1.32-.8a1.36,1.36,0,0,0,.13-.53l.14-.39a9.3,9.3,0,0,1,1.06-2c1.06-1.85,4.63-7.55,4.76-8.08h0a5.75,5.75,0,0,0-.26-1.46l-.13-.26S38.8,47,39.47,46.89a8.22,8.22,0,0,0-.67-1.2l.4-.39a14.21,14.21,0,0,1,1.46,1.19,10.4,10.4,0,0,1,1.19,1.72l.26.27A5.7,5.7,0,0,0,43,49.8v.13h0a15.79,15.79,0,0,0,1.59,2l2.91,3.18v.13s-.39,1.59-.92,3.31a27.94,27.94,0,0,1-1.33,2.78v.13H42.64a3.52,3.52,0,0,0-1.45.27c0,.26.13.4,0,.66s-.27.27-.4.27l.13.13a2.37,2.37,0,0,1,.66-.13.66.66,0,0,1,.14.66c0,.26-.14.4-.27.4l.13.13a2.25,2.25,0,0,1,1.06-.27,1.58,1.58,0,0,1,.14.67c-.14.13-.27.26-.27.39a8.44,8.44,0,0,0,2.38-.53l1.2-.26a1.62,1.62,0,0,0,1.19-.8,20.25,20.25,0,0,0,1.06-2.25,45.39,45.39,0,0,1,2.38-5l.4-.66a1.18,1.18,0,0,0,.4-.8c0-.26,0-.26-.27-.39a5.71,5.71,0,0,1-1.32-1.06c-.93-1.2-.93-3.31-.93-5.3V46.09a16.38,16.38,0,0,0-.53-3.84l-.13-.4h.26c2.12-.13,6.49-.53,8.08-2.51a3,3,0,0,0,.53-2.78Z"/><path class="cls-4" d="M46,14.18a2.87,2.87,0,0,1,.67,1.06h-1.2A2.78,2.78,0,0,1,46,14.18Z"/><path class="cls-1" d="M52.71,11v-.27a6.76,6.76,0,0,0-13.51,0V11a6.6,6.6,0,0,0-3.58,6,6.79,6.79,0,0,0,6.76,6.75A6.67,6.67,0,0,0,46,22.65a6.71,6.71,0,0,0,3.58,1.06A6.78,6.78,0,0,0,56.28,17a6.9,6.9,0,0,0-3.57-6Zm-7.29,6.49h1.06A2.69,2.69,0,0,1,46,18.94a5,5,0,0,1-.53-1.45Zm3.71-.8a6.52,6.52,0,0,0,2.92-3A4,4,0,0,1,53.64,17a4.13,4.13,0,0,1-4.11,4.1,6.77,6.77,0,0,1-1.59-.26A6.86,6.86,0,0,0,49.13,17v-.27ZM42.38,10.2h-.53a4.15,4.15,0,0,1,8.21,0h-.53A7.06,7.06,0,0,0,46,11.26a6.67,6.67,0,0,0-3.57-1.06Zm7.15,2.65h0A7.62,7.62,0,0,1,48.47,14a3.11,3.11,0,0,0-.53-.92,3.31,3.31,0,0,1,1.59-.27Zm-9.67.8a7.15,7.15,0,0,0,2.92,3V17A7.21,7.21,0,0,0,44,20.66a3.47,3.47,0,0,1-1.59.4A4.13,4.13,0,0,1,38.27,17a4.43,4.43,0,0,1,1.59-3.31Zm3.58.39a4.32,4.32,0,0,1-1.06-1.19h0a3.06,3.06,0,0,1,1.59.27c-.13.26-.4.66-.53.92Z"/><path class="cls-1" d="M29.14,5.57a45.72,45.72,0,0,0-5.7-.4A14.85,14.85,0,0,0,18,6.23a14.85,14.85,0,0,0-5.43-1.06,45.46,45.46,0,0,0-5.69.4l-.27.13v16l.4-.13a23.44,23.44,0,0,1,5.16-.53,16.58,16.58,0,0,1,5.7,1.06h.26a16.58,16.58,0,0,1,5.7-1.06,25,25,0,0,1,5.16.53l.4.13V5.7l-.26-.13Z"/><path class="cls-4" d="M17.61,7a13.77,13.77,0,0,0-5-1.06,33.57,33.57,0,0,0-5.16.4V18.55a28.19,28.19,0,0,1,4.9-.4,18.88,18.88,0,0,1,5.29.79V7Z"/><path class="cls-4" d="M23.44,6a13.82,13.82,0,0,0-5,1.06V18.94a19.14,19.14,0,0,1,5.43-.79,27.88,27.88,0,0,1,4.77.4V6.36A33.86,33.86,0,0,0,23.44,6Z"/><path class="cls-3" d="M9.67,8.08c-.27,0-.4.27-.4.53a.8.8,0,0,0,.8.4,12.21,12.21,0,0,1,2.78-.4,6.59,6.59,0,0,1,2.51.67.82.82,0,0,0,.8-.4c.13-.13,0-.53-.4-.53a8.16,8.16,0,0,0-2.91-.66,10.73,10.73,0,0,0-3.18.39Z"/><path class="cls-3" d="M9.67,10.47c-.27,0-.4.26-.4.53a.81.81,0,0,0,.8.39,18.36,18.36,0,0,1,2.78-.26,8,8,0,0,1,2.51.53,1.11,1.11,0,0,0,.8-.27c.13-.26,0-.53-.4-.66a8.16,8.16,0,0,0-2.91-.66,18.7,18.7,0,0,0-3.18.4Z"/><path class="cls-3" d="M9.67,12.85c-.27,0-.4.27-.4.53a.8.8,0,0,0,.8.4,17.7,17.7,0,0,1,2.78-.27,8,8,0,0,1,2.51.53.59.59,0,0,0,.8-.26c.13-.27,0-.53-.4-.66a8.06,8.06,0,0,0-2.91-.67,18.7,18.7,0,0,0-3.18.4Z"/><path class="cls-3" d="M9.67,15.24a.71.71,0,0,0-.4.66.6.6,0,0,0,.8.26,18.36,18.36,0,0,1,2.78-.26,8,8,0,0,1,2.51.53.6.6,0,0,0,.8-.27c.13-.26,0-.53-.4-.66A9.82,9.82,0,0,0,12.85,15a27.27,27.27,0,0,0-3.18.27Z"/><path class="cls-3" d="M26.35,8.08c.4,0,.53.27.4.53s-.4.4-.66.4a14.26,14.26,0,0,0-2.91-.4,6.6,6.6,0,0,0-2.52.67.73.73,0,0,1-.66-.4c-.14-.13,0-.53.26-.53a10.38,10.38,0,0,1,2.92-.66,9.18,9.18,0,0,1,3.17.39Z"/><path class="cls-3" d="M26.35,10.47c.4,0,.53.26.4.53s-.4.39-.66.39a21.49,21.49,0,0,0-2.91-.26,8,8,0,0,0-2.52.53,1,1,0,0,1-.66-.27.48.48,0,0,1,.26-.66,10.38,10.38,0,0,1,2.92-.66,14.8,14.8,0,0,1,3.17.4Z"/><path class="cls-3" d="M26.35,12.85c.4,0,.53.27.4.53s-.4.4-.66.4a20.72,20.72,0,0,0-2.91-.27,8,8,0,0,0-2.52.53.5.5,0,0,1-.4-.92,10.25,10.25,0,0,1,2.92-.67,14.8,14.8,0,0,1,3.17.4Z"/><path class="cls-3" d="M26.35,15.24c.4.13.53.39.4.66s-.4.39-.66.26a21.49,21.49,0,0,0-2.91-.26,8,8,0,0,0-2.52.53.51.51,0,0,1-.4-.93A12.53,12.53,0,0,1,23.18,15a21.55,21.55,0,0,1,3.17.27Z"/><path class="cls-4" d="M47.28,17.35a3.17,3.17,0,0,0,1.06-.26,5.82,5.82,0,0,1-1.06,3.31c-.27-.26-.66-.4-.8-.66a7.18,7.18,0,0,0,.8-2.39Z"/><path class="cls-4" d="M46,4.77a6,6,0,0,1,0,12.05l-.53-.13c0-.26.14-.66.14-1.06H46A4.84,4.84,0,1,0,46,6a4.9,4.9,0,0,0-4.9,4.38c-.39.13-.66.26-1.06.39a6.12,6.12,0,0,1,6-6Z"/><path class="cls-4" d="M49.53,11h.53a2.66,2.66,0,0,1-.13,1.06h-.4a4.17,4.17,0,0,0-2.12.53,1.54,1.54,0,0,0-.79-.8A5.63,5.63,0,0,1,49.53,11Z"/><path class="cls-4" d="M42.38,22.92a6,6,0,0,1,0-11.92,5.85,5.85,0,0,1,5.43,3.44,1.49,1.49,0,0,1-1.06.4,4.82,4.82,0,0,0-4.37-2.78,4.9,4.9,0,0,0,0,9.8,4,4,0,0,0,2.12-.53,2.26,2.26,0,0,0,.79.79,5.64,5.64,0,0,1-2.91.8Z"/><path class="cls-4" d="M41.58,12.85a5.89,5.89,0,0,0,1.59,2,3.17,3.17,0,0,0-.26,1.06,5.23,5.23,0,0,1-2.39-2.65,10.05,10.05,0,0,1,1.06-.4Z"/><path class="cls-4" d="M49.53,22.92a5.94,5.94,0,0,1-6-6,6.59,6.59,0,0,1,1.06-3.45,5.75,5.75,0,0,1,.93.67A4.59,4.59,0,0,0,44.63,17a5,5,0,0,0,4.9,4.9A4.86,4.86,0,0,0,52.31,13a3.87,3.87,0,0,0,.27-1.19,6,6,0,0,1-3,11.13Z"/></g></g></svg>